<svg width="21" height="22" viewBox="0 0 21 22" fill="none" xmlns="http://www.w3.org/2000/svg">
<path fill-rule="evenodd" clip-rule="evenodd" d="M6.79951 1.63013C6.86572 1.34749 6.9946 1.07529 7.18781 0.834856C7.84942 0.0115247 9.0372 -0.155407 9.90013 0.453665C10.1527 0.631921 10.3519 0.858659 10.4935 1.11277C13.4793 1.54725 16.088 4.02564 16.6529 8.04531C17.0182 10.6444 17.7504 12.0338 18.874 12.961C19.1525 13.1908 20.1083 13.8353 20.217 13.9184C20.4258 14.078 20.5633 14.3134 20.5999 14.5736L20.8782 16.5542C20.9551 17.1011 20.574 17.6067 20.0271 17.6836L14.9513 18.397C14.8407 19.407 14.35 20.3469 13.5174 21.0307C12.3568 21.9838 10.7608 22.2081 9.38244 21.6118C8.26197 21.1271 7.59244 20.5037 7.24077 19.4806L2.20231 20.1887C1.6554 20.2656 1.14974 19.8845 1.07287 19.3376L0.794526 17.3571C0.757952 17.0968 0.825288 16.8327 0.981969 16.6217C1.07045 16.5034 1.80758 15.6279 2.01067 15.3334C2.83528 14.1374 3.15573 12.602 2.78916 9.99373C2.22261 5.96254 4.04497 2.86763 6.79951 1.63013ZM9.31107 19.1896C9.48756 19.4302 9.75364 19.5933 10.1765 19.7762C10.8671 20.0749 11.6667 19.9625 12.2481 19.485C12.5174 19.2639 12.7141 18.9938 12.8345 18.6944L9.31107 19.1896Z" fill="url(#paint0_linear)"/>
<defs>
<linearGradient id="paint0_linear" x1="2.54332" y1="-25.3849" x2="22.1509" y2="-23.9857" gradientUnits="userSpaceOnUse">
<stop stop-color="#53B2FC"/>
<stop offset="1" stop-color="#127CCE"/>
</linearGradient>
</defs>
</svg>
